<?xml version="1.0" encoding="UTF-8"?><svg id="Layer_2" xmlns="http://www.w3.org/2000/svg" viewBox="0 0 1589.15 105.27"><g id="Layer_1-2"><g><path d="M18.37,82.03c1.78,1.81,3.73,3.2,5.85,4.16,2.12,.96,4.31,1.44,6.57,1.44s4-.5,5.44-1.49c1.44-.99,2.15-2.44,2.15-4.36,0-1.37-.41-2.51-1.23-3.44s-2.24-1.86-4.26-2.82c-2.02-.96-4.84-2.12-8.46-3.49-1.78-.68-3.76-1.59-5.95-2.72-2.19-1.13-4.29-2.58-6.31-4.36-2.02-1.78-3.69-3.97-5.03-6.57-1.33-2.6-2-5.68-2-9.23,0-4.51,1.2-8.33,3.59-11.44,2.39-3.11,5.57-5.49,9.54-7.13,3.97-1.64,8.38-2.46,13.24-2.46s9.44,.81,13.13,2.41c3.69,1.61,6.74,3.63,9.13,6.05,2.39,2.43,4.24,4.87,5.54,7.34l-14.98,8.31c-1.03-1.71-2.21-3.13-3.54-4.26-1.33-1.13-2.75-2-4.26-2.62-1.5-.62-3.04-.92-4.62-.92-1.98,0-3.56,.41-4.72,1.23-1.16,.82-1.74,1.92-1.74,3.28,0,1.57,.67,2.89,2,3.95,1.33,1.06,3.18,2.05,5.54,2.98,2.36,.92,5.08,1.93,8.16,3.03,2.67,.96,5.11,2.1,7.34,3.44,2.22,1.33,4.16,2.91,5.8,4.72s2.91,3.88,3.8,6.21c.89,2.33,1.33,4.92,1.33,7.8,0,3.83-.77,7.22-2.31,10.16-1.54,2.94-3.63,5.39-6.26,7.34-2.63,1.95-5.63,3.42-8.98,4.41-3.35,.99-6.77,1.49-10.26,1.49-4.92,0-9.49-.84-13.7-2.51-4.21-1.68-7.85-3.97-10.93-6.88-3.08-2.91-5.4-6.14-6.98-9.7l13.54-9.85c1.44,2.53,3.04,4.7,4.82,6.51Z"/><path d="M89.98,29.96v46.58c0,3.28,.85,5.93,2.56,7.95,1.71,2.02,4.27,3.03,7.69,3.03s6.09-1.01,7.8-3.03c1.71-2.02,2.56-4.67,2.56-7.95V29.96h19.9v48.22c0,4.86-.79,9-2.36,12.42-1.57,3.42-3.76,6.21-6.57,8.36-2.81,2.15-6.02,3.75-9.64,4.77-3.63,1.03-7.52,1.54-11.7,1.54s-7.99-.51-11.65-1.54c-3.66-1.03-6.87-2.62-9.64-4.77-2.77-2.16-4.94-4.94-6.52-8.36-1.57-3.42-2.36-7.56-2.36-12.42V29.96h19.9Z"/><path d="M164.67,29.96V101.78h-19.9V29.96h19.9Zm-7.18,0h13.85c6.57,0,11.99,.97,16.26,2.92,4.27,1.95,7.45,4.7,9.54,8.26,2.09,3.56,3.13,7.83,3.13,12.83s-1.04,9.2-3.13,12.82c-2.09,3.63-5.27,6.4-9.54,8.31-4.28,1.92-9.7,2.87-16.26,2.87h-13.85v-16h13.85c3.15,0,5.57-.68,7.28-2.05,1.71-1.37,2.56-3.35,2.56-5.95s-.86-4.48-2.56-5.85c-1.71-1.37-4.14-2.05-7.28-2.05h-13.85V29.96Z"/><path d="M230.03,29.96V101.78h-19.08V29.96h19.08Zm-5.54,0h36.22v16.11h-36.22V29.96Zm0,26.68h34.17v15.59h-34.17v-15.59Zm0,29.04h36.22v16.11h-36.22v-16.11Z"/><path d="M294.36,29.96V101.78h-19.9V29.96h19.9Zm-7.18,0h15.49c6.57,0,11.99,1.03,16.26,3.08,4.27,2.05,7.45,4.87,9.54,8.46,2.09,3.59,3.13,7.75,3.13,12.47s-1.04,8.81-3.13,12.47c-2.09,3.66-5.27,6.5-9.54,8.52-4.28,2.02-9.7,3.03-16.26,3.03h-15.49v-15.08h13.85c2.12,0,3.9-.31,5.34-.92,1.44-.62,2.55-1.54,3.33-2.77,.79-1.23,1.18-2.7,1.18-4.41s-.39-3.16-1.18-4.36c-.79-1.2-1.9-2.1-3.33-2.72s-3.22-.92-5.34-.92h-13.85V29.96Zm27.19,40.12l21.55,31.7h-23.19l-18.78-31.7h20.42Z"/><path d="M388.54,82.03c1.78,1.81,3.73,3.2,5.85,4.16,2.12,.96,4.31,1.44,6.57,1.44s4-.5,5.44-1.49c1.44-.99,2.15-2.44,2.15-4.36,0-1.37-.41-2.51-1.23-3.44s-2.24-1.86-4.26-2.82c-2.02-.96-4.84-2.12-8.46-3.49-1.78-.68-3.76-1.59-5.95-2.72-2.19-1.13-4.29-2.58-6.31-4.36-2.02-1.78-3.69-3.97-5.03-6.57-1.33-2.6-2-5.68-2-9.23,0-4.51,1.2-8.33,3.59-11.44,2.39-3.11,5.57-5.49,9.54-7.13,3.97-1.64,8.38-2.46,13.24-2.46s9.44,.81,13.13,2.41c3.69,1.61,6.74,3.63,9.13,6.05,2.39,2.43,4.24,4.87,5.54,7.34l-14.98,8.31c-1.03-1.71-2.21-3.13-3.54-4.26-1.33-1.13-2.75-2-4.26-2.62-1.5-.62-3.04-.92-4.62-.92-1.98,0-3.56,.41-4.72,1.23-1.16,.82-1.74,1.92-1.74,3.28,0,1.57,.67,2.89,2,3.95,1.33,1.06,3.18,2.05,5.54,2.98,2.36,.92,5.08,1.93,8.16,3.03,2.67,.96,5.11,2.1,7.34,3.44,2.22,1.33,4.16,2.91,5.8,4.72s2.91,3.88,3.8,6.21c.89,2.33,1.33,4.92,1.33,7.8,0,3.83-.77,7.22-2.31,10.16-1.54,2.94-3.63,5.39-6.26,7.34-2.63,1.95-5.63,3.42-8.98,4.41-3.35,.99-6.77,1.49-10.26,1.49-4.92,0-9.49-.84-13.7-2.51-4.21-1.68-7.85-3.97-10.93-6.88-3.08-2.91-5.4-6.14-6.98-9.7l13.54-9.85c1.44,2.53,3.04,4.7,4.82,6.51Z"/><path d="M439.69,50.43c2.02-4.62,4.8-8.58,8.36-11.9,3.56-3.32,7.71-5.88,12.47-7.69,4.75-1.81,9.9-2.72,15.44-2.72s10.89,.91,15.65,2.72c4.75,1.81,8.91,4.38,12.47,7.69,3.56,3.32,6.31,7.28,8.26,11.9,1.95,4.62,2.92,9.76,2.92,15.44s-.96,10.77-2.87,15.49c-1.92,4.72-4.62,8.81-8.11,12.26-3.49,3.45-7.64,6.12-12.47,8-4.82,1.88-10.11,2.82-15.85,2.82s-11.01-.94-15.8-2.82c-4.79-1.88-8.94-4.55-12.47-8-3.52-3.45-6.24-7.54-8.16-12.26-1.92-4.72-2.87-9.88-2.87-15.49s1.01-10.82,3.03-15.44Zm20.26,25.65c1.5,2.98,3.62,5.3,6.36,6.98,2.73,1.68,5.95,2.51,9.64,2.51s6.99-.84,9.7-2.51c2.7-1.67,4.8-4,6.31-6.98,1.5-2.98,2.26-6.38,2.26-10.21s-.72-7.32-2.15-10.26c-1.44-2.94-3.51-5.25-6.21-6.93-2.7-1.68-6-2.51-9.9-2.51-3.69,0-6.91,.84-9.64,2.51-2.74,1.68-4.86,3.99-6.36,6.93-1.51,2.94-2.26,6.36-2.26,10.26s.75,7.23,2.26,10.21Z"/><path d="M545.31,29.96v46.58c0,3.28,.85,5.93,2.56,7.95,1.71,2.02,4.27,3.03,7.69,3.03s6.09-1.01,7.8-3.03c1.71-2.02,2.56-4.67,2.56-7.95V29.96h19.9v48.22c0,4.86-.79,9-2.36,12.42-1.57,3.42-3.76,6.21-6.57,8.36-2.81,2.15-6.02,3.75-9.64,4.77-3.63,1.03-7.52,1.54-11.7,1.54s-7.99-.51-11.65-1.54c-3.66-1.03-6.87-2.62-9.64-4.77-2.77-2.16-4.94-4.94-6.52-8.36-1.57-3.42-2.36-7.56-2.36-12.42V29.96h19.9Z"/><path d="M620,29.96V101.78h-19.9V29.96h19.9Zm-7.18,0h13.85c6.57,0,11.99,.97,16.26,2.92,4.27,1.95,7.45,4.7,9.54,8.26,2.09,3.56,3.13,7.83,3.13,12.83s-1.04,9.2-3.13,12.82c-2.09,3.63-5.27,6.4-9.54,8.31-4.28,1.92-9.7,2.87-16.26,2.87h-13.85v-16h13.85c3.15,0,5.57-.68,7.28-2.05,1.71-1.37,2.56-3.35,2.56-5.95s-.86-4.48-2.56-5.85c-1.71-1.37-4.14-2.05-7.28-2.05h-13.85V29.96Z"/><path d="M685.36,29.96V101.78h-19.08V29.96h19.08Zm-5.54,0h36.22v16.11h-36.22V29.96Zm0,26.68h34.17v15.59h-34.17v-15.59Zm0,29.04h36.22v16.11h-36.22v-16.11Z"/><path d="M781.03,76.18c1.81,2.84,4.22,4.99,7.23,6.46,3.01,1.47,6.33,2.21,9.95,2.21,3.42,0,6.4-.44,8.93-1.33,2.53-.89,4.79-2.04,6.77-3.44,1.98-1.4,3.73-2.89,5.23-4.46v20.93c-2.81,2.05-5.9,3.75-9.29,5.08-3.39,1.33-7.71,2-12.98,2-5.95,0-11.42-.89-16.42-2.67-4.99-1.78-9.27-4.34-12.82-7.7-3.56-3.35-6.31-7.34-8.26-11.95-1.95-4.62-2.92-9.76-2.92-15.44s.97-10.82,2.92-15.44c1.95-4.62,4.7-8.6,8.26-11.95,3.56-3.35,7.83-5.92,12.82-7.69,4.99-1.78,10.47-2.67,16.42-2.67,5.27,0,9.59,.65,12.98,1.95,3.39,1.3,6.48,3.01,9.29,5.13v20.93c-1.5-1.57-3.25-3.06-5.23-4.46-1.98-1.4-4.24-2.55-6.77-3.44-2.53-.89-5.51-1.33-8.93-1.33-3.63,0-6.94,.74-9.95,2.21-3.01,1.47-5.42,3.63-7.23,6.46-1.81,2.84-2.72,6.28-2.72,10.31s.91,7.47,2.72,10.31Z"/><path d="M852.8,29.96V101.78h-19.91V29.96h19.91Zm-15.08,25.44h55.92v17.75h-55.92v-17.75Zm63.3-25.44V101.78h-19.9V29.96h19.9Z"/><path d="M937.75,80.95l1.23,4.41-8.31,16.42h-22.57l39.09-76.64,39.19,76.64h-22.57l-8.21-15.7,1.13-5.13-9.54-21.55-9.44,21.55Zm-8.72-5.44h36.83l.51,14.67h-37.96l.62-14.67Z"/><path d="M1012.85,29.96v46.58c0,3.28,.85,5.93,2.57,7.95,1.71,2.02,4.27,3.03,7.7,3.03s6.09-1.01,7.8-3.03c1.71-2.02,2.57-4.67,2.57-7.95V29.96h19.9v48.22c0,4.86-.79,9-2.36,12.42-1.57,3.42-3.76,6.21-6.57,8.36-2.81,2.15-6.02,3.75-9.64,4.77-3.63,1.03-7.53,1.54-11.7,1.54s-7.99-.51-11.65-1.54c-3.66-1.03-6.87-2.62-9.64-4.77-2.77-2.16-4.94-4.94-6.51-8.36-1.57-3.42-2.36-7.56-2.36-12.42V29.96h19.9Z"/><path d="M1088.26,29.96V101.78h-20.62V29.96h20.62Zm-7.08,71.82v-17.44h12.52c2.39,0,4.74-.26,7.03-.77,2.29-.51,4.36-1.44,6.21-2.77,1.85-1.33,3.33-3.21,4.46-5.64,1.13-2.43,1.69-5.52,1.69-9.29s-.56-6.86-1.69-9.29c-1.13-2.43-2.62-4.31-4.46-5.64-1.85-1.33-3.92-2.26-6.21-2.77-2.29-.51-4.63-.77-7.03-.77h-12.52V29.96h13.34c8.14,0,15.13,1.45,20.98,4.36,5.85,2.91,10.36,7.03,13.54,12.36,3.18,5.33,4.77,11.73,4.77,19.19s-1.59,13.77-4.77,19.13c-3.18,5.37-7.69,9.51-13.54,12.42-5.85,2.91-12.84,4.36-20.98,4.36h-13.34Z"/><path d="M1163.57,29.96V101.78h-19.08V29.96h19.08Zm-5.54,0h36.22v16.11h-36.22V29.96Zm0,26.68h34.17v15.59h-34.17v-15.59Zm0,29.04h36.22v16.11h-36.22v-16.11Z"/><path d="M1257.86,29.96V101.78h-19.08V29.96h19.08Zm4.41-8.82l-9.95-4.72,15.39-16.42,13.03,5.75-18.47,15.39Zm-9.95,8.82h36.22v16.11h-36.22V29.96Zm0,26.68h34.17v15.59h-34.17v-15.59Zm0,29.04h36.22v16.11h-36.22v-16.11Z"/><path d="M1322.19,29.96V101.78h-19.91V29.96h19.91Zm-7.18,0h13.85c6.57,0,11.99,.97,16.26,2.92,4.27,1.95,7.45,4.7,9.54,8.26,2.09,3.56,3.13,7.83,3.13,12.83s-1.04,9.2-3.13,12.82c-2.09,3.63-5.27,6.4-9.54,8.31-4.28,1.92-9.7,2.87-16.26,2.87h-13.85v-16h13.85c3.14,0,5.57-.68,7.28-2.05,1.71-1.37,2.57-3.35,2.57-5.95s-.86-4.48-2.57-5.85c-1.71-1.37-4.14-2.05-7.28-2.05h-13.85V29.96Z"/><path d="M1388.77,29.96V101.78h-20.32V29.96h20.32Z"/><path d="M1424.01,76.18c1.81,2.84,4.22,4.99,7.23,6.46,3.01,1.47,6.33,2.21,9.95,2.21,3.42,0,6.4-.44,8.93-1.33,2.53-.89,4.79-2.04,6.77-3.44,1.98-1.4,3.73-2.89,5.23-4.46v20.93c-2.81,2.05-5.9,3.75-9.29,5.08-3.39,1.33-7.71,2-12.98,2-5.95,0-11.42-.89-16.42-2.67-4.99-1.78-9.27-4.34-12.83-7.7-3.56-3.35-6.31-7.34-8.26-11.95s-2.92-9.76-2.92-15.44,.97-10.82,2.92-15.44c1.95-4.62,4.7-8.6,8.26-11.95,3.56-3.35,7.83-5.92,12.83-7.69,4.99-1.78,10.46-2.67,16.42-2.67,5.27,0,9.59,.65,12.98,1.95,3.39,1.3,6.48,3.01,9.29,5.13v20.93c-1.5-1.57-3.25-3.06-5.23-4.46-1.98-1.4-4.24-2.55-6.77-3.44-2.53-.89-5.51-1.33-8.93-1.33-3.63,0-6.94,.74-9.95,2.21-3.01,1.47-5.42,3.63-7.23,6.46-1.81,2.84-2.72,6.28-2.72,10.31s.91,7.47,2.72,10.31Z"/><path d="M1494.96,29.96V101.78h-19.08V29.96h19.08Zm4.41-8.82l-9.95-4.72,15.39-16.42,13.03,5.75-18.47,15.39Zm-9.95,8.82h36.22v16.11h-36.22V29.96Zm0,26.68h34.17v15.59h-34.17v-15.59Zm0,29.04h36.22v16.11h-36.22v-16.11Z"/><path d="M1558.47,29.96V101.78h-19.08V29.96h19.08Zm-5.54,0h36.22v16.11h-36.22V29.96Zm0,26.68h34.17v15.59h-34.17v-15.59Zm0,29.04h36.22v16.11h-36.22v-16.11Z"/></g></g></svg>