<?xml version="1.0" encoding="UTF-8"?>
<svg id="Calque_2" data-name="Calque 2" xmlns="http://www.w3.org/2000/svg" viewBox="0 0 595.27559 595.27559">
  <defs>
    <style>
      .cls-1 {
        fill: #fbfbfb;
        stroke-width: 0px;
      }
    </style>
  </defs>
  <g id="Calque_1-2" data-name="Calque 1">
    <path class="cls-1" d="M0,568.53469C0,387.93675,0,207.33882,0,26.7409c2.17948-4.43584,4.00128-9.0965,6.6171-13.25807C11.25707,6.10096,19.00707,2.97438,26.7409,0c180.59793,0,361.19585,0,541.7938,0,4.4272,2.18253,9.07254,4.0169,13.23367,6.62411,7.39527,4.63363,10.52223,12.38495,13.50723,20.11679v540.63115c-3.73141,14.87095-13.03444,24.17028-27.90354,27.90354h-156.95743c.06355-2.32029.18237-4.64062.18269-6.96091.00979-72.07198.00805-144.14393.00805-216.21592v-7.40507h77.44863c3.89016-30.10969,7.70229-59.61553,11.63049-90.01988h-89.65281c.60733-24.41677.45948-48.0396,2.04475-71.54557,1.01395-15.03512,10.31839-24.85303,25.25406-27.04722,13.88748-2.04022,28.12668-1.77582,42.21964-2.29113,7.48298-.27361,14.9842-.04849,21.77058-.04849.82724-.87578,1.07565-1.01576,1.07625-1.15678.10765-25.37231.24379-50.74488.13745-76.11644-.00475-1.13802-2.17957-3.21596-3.40162-3.26037-26.87682-.9768-53.7919-2.8754-80.63615-2.17269-23.07782.6041-44.32154,8.86803-62.28844,23.97578-25.21822,21.20507-35.95547,49.48197-37.527,81.38463-1.17127,23.7776-.57508,47.64228-.76153,71.46824-.01731,2.21122-.00231,4.42273-.00231,7.20776h-77.04556v89.96717h77.04552v6.53755c0,72.6532.00383,145.3064-.02164,217.9596-.00067,1.91329-.32139,3.82647-.49287,5.73972H26.74089c-4.43798-2.17046-9.11383-3.96552-13.26163-6.5939C6.12361,584.0205,2.97132,576.27634,0,568.53469Z"/>
  </g>
</svg>