<?xml version="1.0" encoding="UTF-8"?>
<svg id="Calque_2" data-name="Calque 2" xmlns="http://www.w3.org/2000/svg" version="1.1" viewBox="0 0 595.3 595.3">
  <defs>
    <style>
      .cls-1 {
        fill: #fbfbfb;
        stroke-width: 0px;
      }
    </style>
  </defs>
  <path class="cls-1" d="M537.9,0h0c-125.6,0-251.3,0-376.9,0h0S0,0,0,0v595.3h26.7s0,0,0,0h290.7c.2-1.9.5-3.8.5-5.7,0-72.7,0-145.3,0-218v-6.5h-77v-90h77c0-2.8,0-5,0-7.2.2-23.8-.4-47.7.8-71.5,1.6-31.9,12.3-60.2,37.5-81.4,18-15.1,39.2-23.4,62.3-24,26.8-.7,53.8,1.2,80.6,2.2,1.2,0,3.4,2.1,3.4,3.3.1,25.4,0,50.7-.1,76.1,0,.1-.2.3-1.1,1.2-6.8,0-14.3-.2-21.8,0-14.1.5-28.3.3-42.2,2.3-14.9,2.2-24.2,12-25.3,27-1.6,23.5-1.4,47.1-2,71.5h89.7c-3.9,30.4-7.7,59.9-11.6,90h-77.4v7.4c0,72.1,0,144.1,0,216.2,0,2.3-.1,4.6-.2,7h157s0,0,0,0h27.9V0h-57.3Z"/>
</svg>