<?xml version="1.0" encoding="UTF-8"?>
<svg id="Calque_2" data-name="Calque 2" xmlns="http://www.w3.org/2000/svg" version="1.1" viewBox="0 0 2104.3 246.7">
  <defs>
    <style>
      .cls-1 {
        fill: #fffbf5;
        stroke-width: 0px;
      }
    </style>
  </defs>
  <g id="Calque_3" data-name="Calque 3">
    <g>
      <g>
        <path class="cls-1" d="M985.4,244.1c0,1.6-10.9,2.4-32.8,2.4s-32.8-.7-32.8-2.1v-62.5c0-2.1,10.9-3.1,32.8-3.1s32.8.6,32.8,1.7v63.5Z"/>
        <path class="cls-1" d="M1021.9,159.4c4.3,3.4,11.8,8.1,22.4,14.1s20.8,8.9,30.5,8.9,14.6-3.8,14.6-11.3-1.4-6.5-4.1-9.1c-2.7-2.6-7.8-5.7-15.1-9.1-7.3-3.4-12.8-6.1-16.4-8.1-3.7-1.9-8.5-5.1-14.6-9.6-6.1-4.5-10.7-9.1-13.9-13.9-9.1-13-13.7-29.6-13.7-49.7s7.5-37.1,22.5-50.9C1049,6.9,1068.6,0,1092.8,0s31.7,1.8,45.6,5.3c13.9,3.5,21.1,8.2,21.6,13.9v2.1c0,8-2.5,18.1-7.5,30.3-5,12.2-8.6,19-10.6,20.4-14.6-7.5-27.7-11.3-39.3-11.3s-17.3,4.1-17.3,12.3,4.2,9.5,12.7,13.4c1.8.9,4.4,2.2,7.9,3.8,3.4,1.6,7.4,3.5,11.8,5.7,4.4,2.2,9.3,4.9,14.4,8.2s10.7,7.7,16.6,13.2c12.1,11.4,18.2,26.5,18.2,45.3s-6.7,44.5-20.2,60-34.3,23.5-62.4,24c-13.7,0-26.1-1.1-37.2-3.4-11.1-2.3-20.7-6.7-29-13.4-8.2-6.6-12.3-14.6-12.3-24s1.7-18.7,5.2-27.9,7.1-15.4,11-18.3h0,0Z"/>
        <path class="cls-1" d="M1307.1,239.6c0,4.6-11.5,6.9-34.4,6.9s-34.4-2.3-34.4-6.9V63.2h-41.7c-3.9,0-6.7-5.3-8.3-16-.7-5.1-1-10.3-1-15.6s.3-10.5,1-15.6C1189.9,5.3,1192.7,0,1196.7,0h151c3.9,0,6.7,5.3,8.3,16,.7,5.1,1,10.3,1,15.6s-.3,10.5-1,15.6c-1.6,10.6-4.4,16-8.3,16h-40.6v176.5h0Z"/>
        <path class="cls-1" d="M1497.9,6.9c0-4.6,12.6-6.9,37.7-6.9s37.7,2.3,37.7,6.9v159.4c0,23.6-8.4,42.9-25.3,57.8-16.9,14.9-40.2,22.4-70,22.4s-53.9-7.7-72.6-23.1c-18.6-15.4-27.9-36.2-27.9-62.3V7.3c0-4.6,12.6-6.9,37.7-6.9s37.7,2.3,37.7,6.9v156.6c0,4.6,2.4,8.3,7.3,11.1,5.1,2.8,10.4,4.2,16,4.2s10.6-1.3,15.1-3.8c4.5-2.5,6.8-6.4,6.8-11.5V6.9h0Z"/>
        <path class="cls-1" d="M1593.6,230.3V19c0-5.9,1.5-10.5,4.4-13.9,2.9-3.4,6.8-5.1,11.4-5.1h58.8c37.3,0,65.7,9.4,85,28.2,19.4,18.8,29.1,48.4,29.1,88.7,0,86.4-36.9,129.6-110.6,129.6h-60.2c-12,0-18-5.4-18-16.2h0ZM1661.6,66v103.8c0,4.9.3,7.9,1,9.2s2.8,1.9,6.2,1.9c12.7,0,22.4-4.7,29-14.2,6.6-9.5,9.9-25.3,9.9-47.4s-3.4-36.5-10.2-43.2c-6.8-6.7-17.7-10.1-32.5-10.1h-3.5Z"/>
        <path class="cls-1" d="M1865.9,243.4c0,2.1-11.8,3.1-35.4,3.1-18.5-.2-27.8-1.2-27.8-2.8V5.3c0-3.5,11.2-5.2,33.7-5.2,19.7.7,29.5,1.9,29.5,3.5v239.9h0Z"/>
        <path class="cls-1" d="M1995.1,246.5c-32.1,0-58.3-10.5-78.5-31.5s-30.3-51.7-30.3-92.1,10.2-70.9,30.7-91.7C1937.4,10.4,1963.8,0,1996.1,0s58.5,10.2,78.3,30.7c19.9,20.5,29.8,51.4,29.8,92.9s-10.2,72.3-30.5,92.6c-20.4,20.2-46.6,30.3-78.7,30.3h0ZM1995.3,63.5c-11.1,0-20.4,5.1-27.9,15.3-7.5,10.2-11.3,24.5-11.3,42.9s3.6,32.5,10.8,42.4c7.2,9.9,16.6,14.8,28.3,14.8s21.2-5,28.5-14.9c7.3-9.9,10.9-24.2,10.9-42.7s-3.8-32.8-11.3-42.7c-7.5-9.9-16.8-14.9-27.9-14.9h0Z"/>
      </g>
      <g>
        <path class="cls-1" d="M209.1,225.9V7.8c0-4.9,10.5-7.4,31.4-7.4s31.4,2.5,31.4,7.4v171.8h150.9c3.7,0,6.3,5.5,7.7,16.5.6,5.4.9,10.9.9,16.5s-.3,11.3-.9,17.2c-1.6,11.2-4.3,16.8-8,16.8h-198.6c-4.5,0-8.1-2.1-10.8-6.3s-4-9-4-14.4h0Z"/>
        <path class="cls-1" d="M351.6,165.2c-17.2,0-31.2-7-42.1-21.1-10.9-14.1-16.3-34.6-16.3-61.5s5.5-47.4,16.5-61.3C320.6,7.3,334.8.4,352.1.4s31.4,6.8,42,20.5c10.7,13.7,16,34.4,16,62.1s-5.5,48.4-16.4,61.9c-10.9,13.5-25,20.3-42.2,20.3h0ZM351.7,44.4c-5.9,0-10.8,3.4-14.8,10.1s-6,16.2-6,28.3,1.9,21.5,5.7,28c3.8,6.5,8.8,9.7,15,9.7s11.2-3.3,15.1-9.8,5.8-16,5.8-28.2-2-21.6-6-28.2c-4-6.6-8.9-9.8-14.8-9.8,0,0,0,0,0,0Z"/>
        <path class="cls-1" d="M419,4.2c-.6-2.6,9.8-3.8,31.3-3.8s35.9,2.2,36.5,6.7l15.2,147.6L534.8,5.3c1-3.5,9.1-4.9,24.2-4.9s23.1,1.3,24.1,4.6l32.2,150.4,18-149c.4-2.6,5.2-4.3,14.2-5.3,9.1-.9,16.5-.8,22-.8,21.7,0,32.2,1,31.5,4.3l-37.5,232.5c-.8,3.5-6.7,6.1-17.7,7.7-11,1.6-20,1.8-26.8,1.8-25.6,0-38.9-2.6-40.1-9.1l-21.1-96.4-22.9,96.1c-.8,4.2-8,7.2-21.7,9.1-7,.7-14,.5-21,.5l-19.9-.5c-13.6-1.6-20.9-4.6-21.7-8.8L419,4.2Z"/>
        <path class="cls-1" d="M166.9,23.3C148.4,8,124.3.4,94.8.4S42,7.8,25.2,22.6C8.4,37.5,0,56.6,0,80.1v160.1c0,4.6,12.4,6.3,37.4,6.3s37.6-1.7,37.6-6.3v-66.8h44.9v66.4c0,4.6,12.5,6.7,37.4,6.7s37.5-2.1,37.5-6.7V85.3c0-26-9.3-46.7-27.8-62h0ZM74.9,106.5v-24c0-5.1,2.2-8.9,6.7-11.4,4.5-2.5,9.5-3.8,15-3.8s10.8,1.4,15.9,4.1c4.8,2.8,7.2,6.4,7.2,11.1v24h-44.9Z"/>
        <path class="cls-1" d="M871.4,23.3c-18.5-15.3-42.6-23-72.2-23s-52.8,7.4-69.6,22.3c-16.8,14.9-25.2,34-25.2,57.5v160.1c0,4.6,12.6,6.3,37.6,6.3s37.3-1.7,37.3-6.3v-66.8h44.9v66.4c0,4.6,12.5,6.6,37.5,6.6s37.5-2.1,37.5-6.6V85.3c0-26-9.3-46.7-27.8-62h0ZM779.4,106.5v-24c0-5.1,2.2-8.9,6.7-11.4,4.5-2.5,9.5-3.8,15-3.8s10.8,1.4,15.9,4.1c4.8,2.8,7.2,6.4,7.2,11.1v24h-44.9Z"/>
      </g>
    </g>
  </g>
</svg>